{
.appVersion = "3151";
.formatVersion = 3;
DisplayStrings = (
"ABEGHINOPSVY
abeghinopsvy"
);
date = "2023-01-30 16:54:46 +0000";
familyName = "AM 004";
fontMaster = (
{
customParameters = (
{
name = paramArea;
value = 350;
},
{
name = paramDepth;
value = 30;
}
);
id = m01;
metricValues = (
{
over = 16;
pos = 743;
},
{
over = 16;
pos = 630;
},
{
over = 16;
pos = 440;
},
{
over = -16;
},
{
over = -16;
pos = -203;
},
{
over = -16;
}
);
name = Regular;
}
);
glyphs = (
{
glyphname = A;
lastChange = "2023-01-30 17:06:50 +0000";
layers = (
{
layerId = m01;
shapes = (
{
attr = {
fillColor = (0,255);
};
closed = 1;
nodes = (
(278,618,o),
(249,556,o),
(146,317,c),
(30,48,o),
(33,52,o),
(-10,30,c),
(-46,11,o),
(-38,3,o),
(15,2,c),
(41,2,o),
(84,1,o),
(112,0,c),
(139,-1,o),
(164,-1,o),
(169,1,c),
(185,7,o),
(177,19,o),
(146,32,c),
(125,43,o),
(115,51,o),
(113,61,c),
(109,73,o),
(125,125,o),
(152,186,c),
(166,217,l),
(270,217,l),
(374,217,l),
(401,145,l),
(443,39,o),
(442,50,o),
(406,33,c),
(385,23,o),
(375,15,o),
(376,10,c),
(377,3,o),
(395,1,o),
(493,0,c),
(557,0,o),
(614,0,o),
(619,2,c),
(636,6,o),
(629,16,o),
(599,33,c),
(572,49,o),
(567,54,o),
(538,112,c),
(511,168,o),
(384,473,o),
(343,583,c),
(328,622,o),
(325,625,o),
(310,628,c),
(301,628,o),
(290,627,o),
(286,624,c)
);
},
{
attr = {
fillColor = (0,255);
};
closed = 1;
nodes = (
(335,316,o),
(352,271,o),
(351,270,c),
(347,265,o),
(188,262,o),
(188,265,c),
(188,279,o),
(271,480,o),
(274,474,c),
(277,470,o),
(294,424,o),
(315,369,c)
);
}
);
width = 595;
}
);
unicode = 65;
},
{
glyphname = B;
lastChange = "2023-01-30 17:06:50 +0000";
layers = (
{
layerId = m01;
shapes = (
{
attr = {
fillColor = (0,255);
};
closed = 1;
nodes = (
(16,610,o),
(23,604,o),
(40,598,c),
(54,593,o),
(71,582,o),
(79,574,c),
(92,559,l),
(92,312,l),
(92,32,o),
(96,53,o),
(44,28,c),
(30,21,o),
(19,12,o),
(19,8,c),
(19,0,o),
(41,-1,o),
(173,-3,c),
(314,-4,o),
(333,-3,o),
(374,8,c),
(473,33,o),
(529,99,o),
(529,189,c),
(529,256,o),
(494,305,o),
(428,329,c),
(413,335,o),
(393,341,o),
(385,341,c),
(363,341,o),
(369,348,o),
(402,363,c),
(495,403,o),
(529,509,o),
(471,575,c),
(462,586,o),
(441,602,o),
(425,610,c),
(397,625,l),
(206,627,l),
(22,628,o),
(16,628,o),
(16,618,c)
);
},
{
attr = {
fillColor = (0,255);
};
closed = 1;
nodes = (
(369,567,o),
(399,517,o),
(389,453,c),
(380,400,o),
(350,369,o),
(297,357,c),
(265,351,o),
(225,350,o),
(216,356,c),
(212,358,o),
(211,400,o),
(212,474,c),
(214,588,l),
(237,590,l),
(251,592,o),
(266,593,o),
(270,594,c),
(275,594,o),
(293,590,o),
(310,585,c)
);
},
{
attr = {
fillColor = (0,255);
};
closed = 1;
nodes = (
(390,278,o),
(418,232,o),
(418,175,c),
(418,139,o),
(406,104,o),
(390,84,c),
(351,41,o),
(228,33,o),
(213,74,c),
(208,86,o),
(205,308,o),
(210,313,c),
(216,319,o),
(319,307,o),
(340,299,c)
);
}
);
width = 563;
}
);
unicode = 66;
},
{
glyphname = E;
lastChange = "2023-01-30 17:06:50 +0000";
layers = (
{
layerId = m01;
shapes = (
{
attr = {
fillColor = (0,255);
};
closed = 1;
nodes = (
(11,616,o),
(-6,613,o),
(43,591,c),
(57,586,o),
(74,573,o),
(81,565,c),
(93,550,o),
(93,547,o),
(93,314,c),
(93,150,o),
(91,73,o),
(86,64,c),
(83,56,o),
(66,43,o),
(50,34,c),
(31,24,o),
(19,14,o),
(19,8,c),
(19,-1,o),
(34,-1,o),
(261,0,c),
(502,1,l),
(514,69,l),
(531,156,o),
(531,168,o),
(516,168,c),
(509,168,o),
(500,157,o),
(488,134,c),
(465,93,o),
(434,64,o),
(405,55,c),
(359,43,o),
(236,52,o),
(217,69,c),
(206,78,o),
(206,88,o),
(206,189,c),
(206,299,l),
(279,297,l),
(365,294,o),
(375,289,o),
(397,242,c),
(421,191,o),
(426,201,o),
(426,311,c),
(426,393,o),
(425,410,o),
(417,410,c),
(413,410,o),
(405,401,o),
(397,388,c),
(378,355,o),
(365,349,o),
(281,345,c),
(206,341,l),
(206,457,l),
(206,574,l),
(281,574,l),
(322,574,o),
(366,571,o),
(377,568,c),
(408,559,o),
(438,529,o),
(457,488,c),
(471,456,o),
(483,444,o),
(492,452,c),
(499,458,o),
(493,616,o),
(485,620,c),
(482,622,o),
(454,623,o),
(422,623,c),
(392,622,o),
(289,620,o),
(195,619,c)
);
}
);
width = 559;
}
);
unicode = 69;
},
{
glyphname = G;
lastChange = "2023-01-30 17:06:50 +0000";
layers = (
{
layerId = m01;
shapes = (
{
attr = {
fillColor = (0,255);
};
closed = 1;
nodes = (
(231,629,o),
(166,596,o),
(113,539,c),
(-20,397,o),
(1,155,o),
(157,47,c),
(240,-11,o),
(388,-23,o),
(520,16,c),
(545,23,o),
(568,30,o),
(570,30,c),
(573,30,o),
(578,23,o),
(581,16,c),
(585,9,o),
(592,2,o),
(597,2,c),
(603,2,o),
(604,26,o),
(604,121,c),
(604,264,o),
(606,272,o),
(649,291,c),
(667,300,o),
(678,307,o),
(678,313,c),
(678,323,o),
(667,324,o),
(547,324,c),
(403,324,o),
(393,321,o),
(448,293,c),
(466,284,o),
(481,272,o),
(484,264,c),
(489,254,o),
(492,215,o),
(492,155,c),
(492,60,l),
(460,53,l),
(422,44,o),
(361,44,o),
(325,53,c),
(241,72,o),
(169,148,o),
(149,244,c),
(119,388,o),
(172,533,o),
(275,583,c),
(298,596,o),
(310,597,o),
(365,597,c),
(419,597,o),
(430,596,o),
(455,583,c),
(494,563,o),
(527,526,o),
(552,475,c),
(569,439,o),
(576,431,o),
(585,431,c),
(599,431,o),
(599,431,o),
(598,522,c),
(598,573,o),
(596,618,o),
(592,622,c),
(588,629,o),
(585,629,o),
(574,623,c),
(562,617,o),
(556,617,o),
(529,624,c),
(470,642,o),
(377,648,o),
(311,640,c)
);
}
);
width = 689;
}
);
unicode = 71;
},
{
glyphname = H;
lastChange = "2023-01-30 17:06:50 +0000";
layers = (
{
layerId = m01;
shapes = (
{
attr = {
fillColor = (0,255);
};
closed = 1;
nodes = (
(11,617,o),
(18,609,o),
(42,600,c),
(54,595,o),
(71,583,o),
(78,575,c),
(93,558,l),
(93,313,l),
(93,68,l),
(78,52,l),
(71,42,o),
(54,31,o),
(41,26,c),
(30,21,o),
(19,13,o),
(19,9,c),
(19,1,o),
(37,0,o),
(152,0,c),
(265,0,o),
(284,1,o),
(284,9,c),
(284,13,o),
(271,22,o),
(255,29,c),
(205,51,o),
(205,51,o),
(205,192,c),
(205,316,l),
(354,316,l),
(504,316,l),
(504,192,l),
(504,70,o),
(504,68,o),
(491,52,c),
(482,43,o),
(467,31,o),
(454,25,c),
(441,20,o),
(431,12,o),
(431,8,c),
(431,1,o),
(455,0,o),
(560,0,c),
(671,0,o),
(690,1,o),
(690,9,c),
(690,13,o),
(678,22,o),
(662,29,c),
(646,36,o),
(629,46,o),
(625,53,c),
(618,62,o),
(617,104,o),
(617,311,c),
(617,558,l),
(631,575,l),
(639,584,o),
(657,596,o),
(671,601,c),
(688,608,o),
(695,613,o),
(694,620,c),
(693,628,o),
(678,629,o),
(560,629,c),
(435,629,o),
(428,628,o),
(428,619,c),
(428,611,o),
(435,605,o),
(450,601,c),
(462,597,o),
(479,586,o),
(486,579,c),
(501,564,o),
(501,563,o),
(503,465,c),
(504,367,l),
(355,367,l),
(205,367,l),
(205,462,l),
(205,558,l),
(221,576,l),
(229,585,o),
(246,596,o),
(259,601,c),
(274,605,o),
(282,611,o),
(282,619,c),
(282,628,o),
(273,629,o),
(150,630,c),
(66,631,o),
(18,630,o),
(16,626,c)
);
}
);
width = 709;
},
{
associatedMasterId = m01;
layerId = "5B589DAC-8C71-4AC7-AF68-1FD102B4B8AB";
name = "Artwork Import";
shapes = (
{
attr = {
fillColor = (0,255);
};
closed = 1;
nodes = (
(0,0,l),
(500,0,l),
(1000,0,l),
(1000,500,l),
(1000,1000,l),
(500,1000,l),
(0,1000,l),
(0,500,l)
);
},
{
attr = {
fillColor = (0,255);
};
closed = 1;
nodes = (
(998.047,1.953,l),
(500.244,1.953,l),
(2.441,1.953,l),
(2.604,496.338,l),
(2.692,768.249,o),
(2.803,992.37,o),
(2.848,994.385,c),
(2.93,998.047,l),
(500.488,998.047,l),
(998.047,998.047,l),
(998.047,500,l)
);
},
{
attr = {
fillColor = (0,255);
};
closed = 1;
nodes = (
(542.148,931.702,o),
(540.549,931.125,o),
(540.238,929.511,c),
(540.065,928.612,o),
(541.116,927.525,o),
(542.853,926.806,c),
(549.68,923.979,o),
(549.264,927.508,o),
(549.805,867.818,c),
(550.293,813.965,l),
(555.84,811.19,l),
(567.091,805.563,o),
(582.018,805.491,o),
(593.296,811.009,c),
(607.638,818.026,o),
(617.15,836.313,o),
(615.915,854.492,c),
(614.042,882.034,o),
(593.158,894.655,o),
(572.397,880.792,c),
(569.235,878.681,o),
(566.484,876.953,o),
(566.283,876.953,c),
(566.082,876.953,o),
(565.918,890.246,o),
(565.918,906.494,c),
(565.918,940.678,o),
(567.196,937.618,o),
(554.199,934.549,c)
);
},
{
attr = {
fillColor = (0,255);
};
closed = 1;
nodes = (
(261.702,914.99,o),
(246.757,902.91,o),
(239.455,887.62,c),
(234.675,877.609,o),
(233.398,871.792,o),
(233.398,860.021,c),
(233.398,838.646,o),
(242.746,822,o),
(259.772,813.053,c),
(291.737,796.256,o),
(331.959,813.549,o),
(343.364,848.993,c),
(346.77,859.576,o),
(346.975,875.04,o),
(343.84,884.912,c),
(341.337,892.798,o),
(335.44,901.873,o),
(329.317,907.263,c),
(323.606,912.289,o),
(312.796,917.502,o),
(305.24,918.871,c),
(297.53,920.27,o),
(285.115,920.076,o),
(277.588,918.44,c)
);
},
{
attr = {
fillColor = (0,255);
};
closed = 1;
nodes = (
(53.239,914.463,o),
(54.552,913.124,o),
(58.681,911.473,c),
(60.785,910.63,o),
(63.604,908.638,o),
(64.945,907.044,c),
(67.383,904.147,l),
(67.383,861.816,l),
(67.383,819.485,l),
(64.945,816.589,l),
(63.604,814.995,o),
(60.748,812.987,o),
(58.598,812.127,c),
(56.447,811.267,o),
(54.688,809.9,o),
(54.688,809.09,c),
(54.688,807.819,o),
(57.834,807.617,o),
(77.637,807.617,c),
(97.192,807.617,o),
(100.586,807.83,o),
(100.586,809.055,c),
(100.586,809.851,o),
(98.389,811.438,o),
(95.667,812.608,c),
(86.934,816.365,o),
(86.914,816.429,o),
(86.914,840.952,c),
(86.914,862.305,l),
(112.793,862.305,l),
(138.672,862.305,l),
(138.672,840.896,l),
(138.672,819.63,o),
(138.656,819.467,o),
(136.292,816.657,c),
(134.982,815.102,o),
(132.126,813.023,o),
(129.944,812.039,c),
(127.762,811.056,o),
(125.977,809.658,o),
(125.977,808.934,c),
(125.977,807.867,o),
(130.248,807.617,o),
(148.438,807.617,c),
(167.563,807.617,o),
(170.898,807.831,o),
(170.898,809.055,c),
(170.898,809.851,o),
(168.699,811.438,o),
(165.975,812.611,c),
(163.266,813.776,o),
(160.409,815.644,o),
(159.627,816.762,c),
(158.433,818.467,o),
(158.203,825.667,o),
(158.203,861.471,c),
(158.203,904.147,l),
(160.672,907.081,l),
(162.03,908.695,o),
(165.126,910.773,o),
(167.551,911.7,c),
(170.572,912.854,o),
(171.866,913.875,o),
(171.66,914.944,c),
(171.396,916.32,o),
(168.656,916.504,o),
(148.424,916.504,c),
(126.791,916.504,o),
(125.488,916.401,o),
(125.488,914.704,c),
(125.488,913.485,o),
(126.724,912.479,o),
(129.313,911.59,c),
(131.417,910.866,o),
(134.273,909.141,o),
(135.661,907.754,c),
(138.153,905.264,o),
(138.187,905.032,o),
(138.49,888.164,c),
(138.798,871.094,l),
(112.855,871.094,l),
(86.914,871.094,l),
(86.914,887.68,l),
(86.914,904.266,l),
(89.6,907.252,l),
(91.077,908.895,o),
(94.043,910.838,o),
(96.191,911.571,c),
(98.854,912.479,o),
(100.098,913.478,o),
(100.098,914.704,c),
(100.098,916.394,o),
(98.709,916.52,o),
(77.461,916.766,c),
(62.87,916.935,o),
(54.606,916.675,o),
(54.21,916.033,c)
);
},
{
attr = {
fillColor = (0,255);
};
closed = 1;
nodes = (
(317.81,902.075,o),
(326.138,885.09,o),
(326.138,863.77,c),
(326.138,847.207,o),
(322.182,835.394,o),
(313.425,825.813,c),
(306.602,818.347,o),
(300.815,815.952,o),
(289.551,815.933,c),
(281.912,815.92,o),
(280.043,816.271,o),
(275.269,818.615,c),
(268.556,821.912,o),
(261.422,829.333,o),
(258.199,836.374,c),
(250.559,853.062,o),
(251.391,879.016,o),
(260.027,893.406,c),
(265.074,901.814,o),
(274.268,909.049,o),
(282.715,911.259,c),
(288.336,912.729,o),
(298.399,911.571,o),
(304.056,908.805,c)
);
},
{
attr = {
fillColor = (0,255);
};
closed = 1;
nodes = (
(402.78,880.841,o),
(401.325,879.517,o),
(407.271,876.441,c),
(413.095,873.431,o),
(413.086,873.508,o),
(413.086,825.093,c),
(413.086,780.947,l),
(409.18,777.231,l),
(407.031,775.188,o),
(405.273,773.278,o),
(405.273,772.988,c),
(405.273,772.698,o),
(413.184,772.461,o),
(422.852,772.461,c),
(436.945,772.461,o),
(440.43,772.722,o),
(440.43,773.777,c),
(440.43,774.502,o),
(438.64,775.901,o),
(436.452,776.888,c),
(430.124,779.741,o),
(429.688,780.951,o),
(429.688,795.628,c),
(429.688,803.173,o),
(430.075,808.594,o),
(430.616,808.594,c),
(431.127,808.594,o),
(433.79,808.112,o),
(436.535,807.523,c),
(440.111,806.757,o),
(443.206,806.749,o),
(447.45,807.496,c),
(460.336,809.767,o),
(468.684,816.299,o),
(474.875,828.959,c),
(479.004,837.402,l),
(479.004,851.173,l),
(479.004,864.943,l),
(475.586,871.637,l),
(470.05,882.48,o),
(461.469,887.538,o),
(450.513,886.416,c),
(444.265,885.776,o),
(438.008,883.079,o),
(433.415,879.047,c),
(431.492,877.358,o),
(429.633,875.977,o),
(429.285,875.977,c),
(428.937,875.977,o),
(428.775,878.283,o),
(428.926,881.104,c),
(429.185,885.948,o),
(429.064,886.242,o),
(426.758,886.437,c),
(425.415,886.55,o),
(420.581,885.636,o),
(416.016,884.406,c)
);
},
{
attr = {
fillColor = (0,255);
};
closed = 1;
nodes = (
(688.782,881.39,o),
(687.327,880.056,o),
(692.297,877.486,c),
(693.86,876.678,o),
(696.058,874.849,o),
(697.18,873.423,c),
(699.136,870.936,o),
(699.219,869.733,o),
(699.219,843.75,c),
(699.219,818.032,o),
(699.119,816.543,o),
(697.24,814.154,c),
(696.152,812.771,o),
(694.395,811.363,o),
(693.334,811.027,c),
(692.273,810.69,o),
(691.406,809.786,o),
(691.406,809.017,c),
(691.406,807.856,o),
(694.249,807.617,o),
(708.008,807.617,c),
(725.969,807.617,o),
(727.97,808.293,o),
(721.044,812.022,c),
(715.077,815.236,o),
(714.83,816.766,o),
(715.523,846.198,c),
(716.138,872.303,l),
(719.641,873.88,l),
(724.996,876.291,o),
(736.405,876.048,o),
(739.919,873.447,c),
(745.351,869.426,o),
(745.605,867.972,o),
(745.605,840.952,c),
(745.605,816.182,l),
(741.455,812.605,l),
(739.173,810.639,o),
(737.305,808.711,o),
(737.305,808.323,c),
(737.305,807.935,o),
(744.995,807.617,o),
(754.395,807.617,c),
(772.875,807.617,o),
(774.833,808.257,o),
(767.843,812.012,c),
(761.912,815.197,o),
(761.75,816.055,o),
(761.728,844.238,c),
(761.716,859.703,o),
(761.286,871.147,o),
(760.63,873.513,c),
(758.506,881.162,o),
(750.295,886.699,o),
(741.054,886.713,c),
(735.256,886.722,o),
(725.896,883.281,o),
(720.371,879.11,c),
(715.224,875.224,l),
(715.64,880.971,l),
(716.055,886.719,l),
(712.764,886.634,l),
(710.954,886.587,o),
(704.969,885.426,o),
(699.463,884.053,c)
);
},
{
attr = {
fillColor = (0,255);
};
closed = 1;
nodes = (
(852.508,881.972,o),
(853.646,880.384,o),
(855.858,878.608,c),
(857.855,877.007,o),
(860.725,873.232,o),
(862.235,870.221,c),
(868.384,857.965,o),
(888.018,811.015,o),
(887.975,808.671,c),
(887.948,807.286,o),
(886.282,802.282,o),
(884.272,797.551,c),
(880.617,788.95,l),
(878.319,791.108,l),
(872.796,796.298,o),
(864.258,791.278,o),
(864.258,782.842,c),
(864.258,776.801,o),
(867.512,773.438,o),
(873.356,773.438,c),
(881.106,773.438,o),
(883.92,777.2,o),
(892.264,798.723,c),
(894.681,804.958,o),
(902.362,824.44,o),
(909.335,842.019,c),
(921.478,872.63,o),
(922.198,874.143,o),
(926.424,877.861,c),
(928.851,879.997,o),
(930.552,882.205,o),
(930.204,882.767,c),
(929.812,883.402,o),
(924.236,883.789,o),
(915.47,883.789,c),
(899.529,883.789,o),
(898.06,882.983,o),
(905.762,878.47,c),
(908.179,877.053,o),
(910.156,875.18,o),
(910.156,874.308,c),
(910.156,873.435,o),
(907.242,863.675,o),
(903.68,852.62,c),
(900.117,841.564,o),
(897.011,831.86,o),
(896.775,831.055,c),
(896.43,829.872,o),
(881.853,865.783,o),
(879.46,873.712,c),
(878.923,875.491,o),
(879.556,876.274,o),
(883.299,878.469,c),
(885.763,879.913,o),
(887.614,881.591,o),
(887.413,882.197,c),
(886.88,883.801,o),
(853.922,884.26,o),
(852.943,882.678,c)
);
},
{
attr = {
fillColor = (0,255);
};
closed = 1;
nodes = (
(459.401,869.629,o),
(463.867,859.254,o),
(463.867,844.342,c),
(463.867,830.44,o),
(459.18,819.974,o),
(451.521,816.773,c),
(447.231,814.981,o),
(439.868,815.074,o),
(434.241,816.991,c),
(429.657,818.554,l),
(429.917,846.014,l),
(430.176,873.474,l),
(434.082,874.65,l),
(440.333,876.533,o),
(446.358,876.227,o),
(451.196,873.779,c)
);
},
{
attr = {
fillColor = (0,255);
};
closed = 1;
nodes = (
(593.132,872.048,o),
(597.868,865.168,o),
(599.659,853.624,c),
(601.556,841.4,o),
(598.897,828.165,o),
(593.182,821.372,c),
(587.722,814.883,o),
(578.495,813.208,o),
(570.547,817.263,c),
(566.406,819.376,l),
(566.406,846.211,l),
(566.406,860.971,o),
(566.516,873.054,o),
(566.65,873.062,c),
(566.785,873.069,o),
(568.652,873.71,o),
(570.801,874.483,c),
(575.61,876.216,o),
(580.686,876.34,o),
(585.06,874.832,c)
);
},
{
attr = {
fillColor = (0,255);
};
closed = 1;
nodes = (
(685.292,701.01,o),
(683.837,699.75,o),
(690.4,696.79,c),
(698.28,693.237,o),
(697.718,697.438,o),
(698.053,639.604,c),
(698.383,582.652,o),
(698.487,583.724,o),
(692.304,580.525,c),
(686.401,577.474,o),
(689.219,576.674,o),
(706.867,576.393,c),
(722.37,576.145,o),
(723.633,576.256,o),
(723.63,577.857,c),
(723.629,578.858,o),
(722.084,580.415,o),
(719.973,581.543,c),
(717.365,582.936,o),
(716.028,584.477,o),
(715.312,586.914,c),
(714.695,589.012,o),
(714.439,600.051,o),
(714.649,615.492,c),
(714.992,640.651,l),
(718.092,642.261,l),
(722.936,644.774,o),
(734.11,645.082,o),
(738.206,642.813,c),
(744.706,639.213,o),
(745.117,637.265,o),
(745.117,610.026,c),
(745.117,585.744,l),
(742.084,582.911,l),
(740.416,581.354,o),
(738.438,580.078,o),
(737.689,580.078,c),
(736.94,580.078,o),
(736.328,579.189,o),
(736.328,578.103,c),
(736.328,576.184,o),
(736.826,576.135,o),
(753.582,576.394,c),
(771.719,576.674,o),
(774.571,577.455,o),
(768.646,580.52,c),
(767.016,581.362,o),
(764.79,583.009,o),
(763.7,584.179,c),
(761.814,586.203,o),
(761.719,587.538,o),
(761.713,611.757,c),
(761.71,626.502,o),
(761.277,638.759,o),
(760.684,640.896,c),
(759.409,645.486,o),
(754.465,651.233,o),
(750.291,652.978,c),
(746.186,654.692,o),
(734.94,654.668,o),
(729.169,652.931,c),
(726.672,652.179,o),
(722.426,649.981,o),
(719.733,648.048,c),
(717.042,646.113,o),
(714.73,644.531,o),
(714.598,644.53,c),
(714.464,644.53,o),
(714.355,658.483,o),
(714.355,675.536,c),
(714.355,706.543,l),
(711.914,706.741,l),
(710.571,706.85,o),
(704.858,705.808,o),
(699.219,704.425,c)
);
},
{
attr = {
fillColor = (0,255);
};
closed = 1;
nodes = (
(267.263,682.755,o),
(258.446,672.628,o),
(258.349,656.738,c),
(258.308,650.088,o),
(258.71,648.092,o),
(261.053,643.321,c),
(264.506,636.29,o),
(268.86,632.749,o),
(283.047,625.437,c),
(295.954,618.783,o),
(300.921,614.004,o),
(302.72,606.505,c),
(305.07,596.706,o),
(301.705,588.134,o),
(293.975,584.229,c),
(281.477,577.915,o),
(268.837,585.828,o),
(263.642,603.221,c),
(262.292,607.738,o),
(260.771,608.863,o),
(258.385,607.11,c),
(256.987,606.084,o),
(256.928,604.562,o),
(257.846,593.292,c),
(258.476,585.547,o),
(259.333,580.328,o),
(260.054,579.855,c),
(267.092,575.24,o),
(289.524,574.149,o),
(299.044,577.961,c),
(321.143,586.808,o),
(326.031,619.133,o),
(307.305,632.582,c),
(304.975,634.255,o),
(298.489,637.772,o),
(292.892,640.399,c),
(277.138,647.793,o),
(271.822,655.303,o),
(274.35,666.596,c),
(276.062,674.246,o),
(281.616,678.711,o),
(289.423,678.711,c),
(299.483,678.711,o),
(304.853,673.914,o),
(310.188,660.156,c),
(311.69,656.285,o),
(312.85,654.698,o),
(314.339,654.473,c),
(316.304,654.177,o),
(316.4,654.541,o),
(316.278,661.797,c),
(316.208,665.997,o),
(315.879,672.728,o),
(315.546,676.754,c),
(314.941,684.073,l),
(307.129,685.226,l),
(297.977,686.574,o),
(290.622,686.635,o),
(283.321,685.423,c)
);
},
{
attr = {
fillColor = (0,255);
};
closed = 1;
nodes = (
(67.866,683.069,o),
(64.854,682.517,o),
(73.501,678.81,c),
(75.881,677.789,o),
(78.774,675.752,o),
(79.93,674.283,c),
(82.005,671.646,o),
(82.031,671.093,o),
(82.031,630.773,c),
(82.031,602.339,o),
(81.694,589.195,o),
(80.921,587.498,c),
(80.296,586.127,o),
(77.518,583.862,o),
(74.575,582.325,c),
(71.268,580.597,o),
(69.34,578.957,o),
(69.338,577.87,c),
(69.336,576.252,o),
(71.78,576.166,o),
(111.076,576.405,c),
(152.816,576.66,l),
(154.954,588.379,l),
(157.722,603.551,o),
(157.764,605.469,o),
(155.331,605.469,c),
(154.011,605.469,o),
(152.483,603.683,o),
(150.303,599.592,c),
(146.561,592.571,o),
(141.165,587.427,o),
(136.056,586.008,c),
(128.214,583.83,o),
(106.771,585.433,o),
(103.443,588.444,c),
(101.71,590.014,o),
(101.562,591.631,o),
(101.562,609.136,c),
(101.562,628.126,l),
(114.188,627.783,l),
(128.996,627.382,o),
(130.881,626.517,o),
(134.708,618.361,c),
(138.9,609.428,o),
(139.648,611.246,o),
(139.648,630.371,c),
(139.648,644.572,o),
(139.411,647.461,o),
(138.246,647.461,c),
(137.475,647.461,o),
(135.896,645.773,o),
(134.736,643.711,c),
(131.457,637.877,o),
(129.101,637.003,o),
(114.502,636.201,c),
(101.562,635.491,l),
(101.562,655.637,l),
(101.562,675.781,l),
(114.502,675.775,l),
(121.618,675.772,o),
(129.199,675.294,o),
(131.348,674.712,c),
(136.599,673.289,o),
(141.863,667.991,o),
(145.023,660.949,c),
(147.471,655.496,o),
(149.66,653.241,o),
(151.105,654.687,c),
(152.268,655.849,o),
(151.3,683.03,o),
(150.069,683.813,c),
(149.44,684.213,o),
(144.531,684.447,o),
(139.16,684.333,c),
(133.789,684.219,o),
(116.027,683.895,o),
(99.69,683.615,c)
);
},
{
attr = {
fillColor = (0,255);
};
closed = 1;
nodes = (
(424.84,649.867,o),
(418.701,641.773,o),
(418.701,630.521,c),
(418.701,619.836,o),
(422.979,614.959,o),
(437.699,608.857,c),
(447.608,604.75,o),
(452.699,600.43,o),
(453.659,595.313,c),
(455.513,585.434,o),
(443.072,578.65,o),
(432.754,583.914,c),
(428.921,585.87,o),
(425.557,590.271,o),
(422.405,597.452,c),
(421.19,600.219,o),
(420.042,601.537,o),
(419.023,601.335,c),
(417.704,601.073,o),
(417.53,599.477,o),
(417.826,590.31,c),
(418.017,584.413,o),
(418.526,579.212,o),
(418.96,578.75,c),
(420.408,577.203,o),
(431.078,575.226,o),
(438.055,575.211,c),
(455.205,575.173,o),
(466.179,583.908,o),
(467.517,598.664,c),
(468.57,610.287,o),
(464.102,615.664,o),
(447.241,623.058,c),
(433.491,629.087,o),
(432.129,630.319,o),
(432.129,636.724,c),
(432.129,640.704,o),
(432.606,642.035,o),
(434.837,644.265,c),
(437.13,646.559,o),
(438.354,646.973,o),
(442.839,646.973,c),
(447.549,646.973,o),
(448.517,646.602,o),
(451.598,643.615,c),
(453.515,641.758,o),
(456.043,637.725,o),
(457.262,634.582,c),
(458.805,630.605,o),
(459.984,628.906,o),
(461.208,628.906,c),
(462.8,628.906,o),
(462.929,629.911,o),
(462.678,640.375,c),
(462.402,651.844,l),
(456.055,653.024,l),
(447.742,654.571,o),
(442.124,654.491,o),
(435.547,652.731,c)
);
},
{
attr = {
fillColor = (0,255);
};
closed = 1;
nodes = (
(563.376,650.703,o),
(552.572,637.499,o),
(549.752,620.783,c),
(548.375,612.618,o),
(549.024,601.987,o),
(551.299,595.465,c),
(553.396,589.45,o),
(560.488,581.624,o),
(566.789,578.372,c),
(571.114,576.141,o),
(573.01,575.791,o),
(581.055,575.741,c),
(589.358,575.689,o),
(590.932,575.978,o),
(596.045,578.488,c),
(600.313,580.585,o),
(602.473,582.423,o),
(604.59,585.76,c),
(609.074,592.832,o),
(608.53,593.155,o),
(598.739,589.238,c),
(593.358,587.086,o),
(591.425,586.776,o),
(586.538,587.287,c),
(573.164,588.686,o),
(564.453,598.992,o),
(564.453,613.419,c),
(564.453,618.129,l),
(587.646,618.391,l),
(610.84,618.652,l),
(610.522,625.404,l),
(609.548,646.099,o),
(596.009,657.119,o),
(576.315,653.247,c)
);
},
{
attr = {
fillColor = (0,255);
};
closed = 1;
nodes = (
(852.366,648.916,o),
(853.57,646.484,o),
(854.902,646.484,c),
(857.329,646.484,o),
(861.377,640.792,o),
(866.014,630.858,c),
(868.645,625.219,o),
(875.313,610.389,o),
(880.828,597.9,c),
(889.645,577.943,o),
(891.126,575.195,o),
(893.063,575.195,c),
(894.276,575.195,o),
(895.707,575.744,o),
(896.243,576.416,c),
(897.163,577.569,o),
(903.006,591.449,o),
(917.107,625.977,c),
(922.227,638.512,o),
(924.007,641.812,o),
(927.465,645.177,c),
(929.762,647.411,o),
(931.641,649.499,o),
(931.641,649.815,c),
(931.641,650.132,o),
(925.049,650.391,o),
(916.992,650.391,c),
(904.517,650.391,o),
(902.344,650.17,o),
(902.344,648.901,c),
(902.344,648.083,o),
(903.552,646.953,o),
(905.027,646.393,c),
(908.813,644.953,o),
(911.133,642.616,o),
(911.133,640.243,c),
(911.133,637.868,o),
(898.249,599.609,o),
(897.449,599.609,c),
(896.595,599.609,o),
(880.859,639.429,o),
(880.859,641.59,c),
(880.859,642.792,o),
(882.347,644.469,o),
(884.766,645.996,c),
(886.914,647.353,o),
(888.672,648.896,o),
(888.672,649.427,c),
(888.672,650.467,o),
(854.286,650.836,o),
(853.258,649.807,c)
);
},
{
attr = {
fillColor = (0,255);
};
closed = 1;
nodes = (
(589.233,643.68,o),
(590.904,641.725,o),
(591.603,640.3,c),
(593.1,637.248,o),
(594.898,627.044,o),
(594.152,625.837,c),
(593.462,624.72,o),
(564.453,624.755,o),
(564.453,625.874,c),
(564.453,626.354,o),
(565.319,629.552,o),
(566.378,632.979,c),
(570.121,645.097,o),
(579.885,650.392,o),
(587.891,644.644,c)
);
},
{
attr = {
fillColor = (0,255);
};
closed = 1;
nodes = (
(716.742,455.26,o),
(705.395,449.513,o),
(696.215,439.704,c),
(673.19,415.102,o),
(676.949,373.069,o),
(703.848,354.362,c),
(718.082,344.462,o),
(743.895,342.324,o),
(766.72,349.156,c),
(771.141,350.479,o),
(775.046,351.562,o),
(775.397,351.562,c),
(775.749,351.562,o),
(776.625,350.464,o),
(777.344,349.121,c),
(778.063,347.778,o),
(779.235,346.68,o),
(779.95,346.68,c),
(780.991,346.68,o),
(781.25,350.771,o),
(781.25,367.219,c),
(781.25,391.956,o),
(781.669,393.552,o),
(789.01,396.777,c),
(792.168,398.165,o),
(793.907,399.531,o),
(793.922,400.635,c),
(793.943,402.214,o),
(792.233,402.344,o),
(771.484,402.344,c),
(746.46,402.344,o),
(744.638,401.789,o),
(754.235,397.094,c),
(757.356,395.566,o),
(759.902,393.544,o),
(760.583,392.05,c),
(761.303,390.471,o),
(761.719,383.546,o),
(761.719,373.156,c),
(761.719,356.756,l),
(756.355,355.556,l),
(749.753,354.078,o),
(739.283,354.041,o),
(732.898,355.472,c),
(718.291,358.745,o),
(706.068,372.077,o),
(702.578,388.544,c),
(697.289,413.497,o),
(706.539,438.568,o),
(724.277,447.356,c),
(728.398,449.398,o),
(730.38,449.699,o),
(739.746,449.703,c),
(749.18,449.706,o),
(751.081,449.415,o),
(755.355,447.312,c),
(762.246,443.922,o),
(768.049,437.499,o),
(772.257,428.606,c),
(775.183,422.423,o),
(776.302,420.946,o),
(778.076,420.925,c),
(780.267,420.898,o),
(780.273,420.949,o),
(780.259,436.768,c),
(780.25,445.495,o),
(779.84,453.275,o),
(779.346,454.057,c),
(778.59,455.251,o),
(778.069,455.273,o),
(776.059,454.197,c),
(774.057,453.126,o),
(772.814,453.167,o),
(768.395,454.452,c),
(758.041,457.462,o),
(742.03,458.56,o),
(730.469,457.051,c)
);
},
{
attr = {
fillColor = (0,255);
};
closed = 1;
nodes = (
(87.416,452.543,o),
(89.599,450.404,o),
(92.8,449.701,c),
(94.352,449.36,o),
(96.958,447.559,o),
(98.592,445.698,c),
(101.562,442.314,l),
(101.562,400.797,l),
(101.562,366.879,o),
(101.31,358.788,o),
(100.179,356.602,c),
(99.347,354.992,o),
(96.801,352.991,o),
(93.795,351.583,c),
(90.485,350.033,o),
(88.895,348.726,o),
(89.089,347.717,c),
(89.345,346.386,o),
(92.303,346.191,o),
(112.305,346.191,c),
(132.241,346.191,o),
(135.266,346.389,o),
(135.519,347.706,c),
(135.718,348.737,o),
(134.082,349.937,o),
(130.401,351.464,c),
(120.384,355.615,o),
(120.955,352.509,o),
(121.29,400.97,c),
(121.623,449.086,o),
(120.942,445.519,o),
(130.615,449.836,c),
(133.532,451.138,o),
(135.742,452.761,o),
(135.742,453.601,c),
(135.742,454.878,o),
(132.58,455.078,o),
(112.362,455.078,c),
(97.175,455.078,o),
(88.762,454.721,o),
(88.353,454.059,c)
);
},
{
attr = {
fillColor = (0,255);
};
closed = 1;
nodes = (
(242.188,452,o),
(243.468,450.948,o),
(246.435,449.815,c),
(248.771,448.923,o),
(251.737,447.07,o),
(253.026,445.697,c),
(255.371,443.202,l),
(255.371,400.414,l),
(255.371,351.909,o),
(255.964,355.426,o),
(247.07,351.187,c),
(244.653,350.034,o),
(242.676,348.439,o),
(242.676,347.642,c),
(242.676,346.4,o),
(246.543,346.154,o),
(269.498,345.932,c),
(293.737,345.696,o),
(297.074,345.861,o),
(304.145,347.649,c),
(321.293,351.985,o),
(331.069,363.438,o),
(331.045,379.161,c),
(331.027,390.552,o),
(324.846,399.161,o),
(313.684,403.34,c),
(310.844,404.403,o),
(307.438,405.273,o),
(306.115,405.273,c),
(302.314,405.273,o),
(303.311,406.551,o),
(309.052,409.035,c),
(325.046,415.958,o),
(331.099,434.479,o),
(321.092,445.876,c),
(319.417,447.783,o),
(315.811,450.524,o),
(313.076,451.967,c),
(308.105,454.59,l),
(275.146,454.882,l),
(243.233,455.165,o),
(242.188,455.115,o),
(242.188,453.306,c)
);
},
{
attr = {
fillColor = (0,255);
};
closed = 1;
nodes = (
(842.493,452.858,o),
(843.349,451.99,o),
(849.043,447.977,c),
(852.156,445.782,o),
(854.574,442.243,o),
(870.663,416.321,c),
(883.789,395.174,l),
(883.789,376.44,l),
(883.789,358.229,o),
(883.727,357.64,o),
(881.536,355.275,c),
(880.296,353.938,o),
(877.201,352.049,o),
(874.657,351.078,c),
(871.465,349.858,o),
(870.124,348.828,o),
(870.331,347.751,c),
(870.594,346.385,o),
(873.466,346.159,o),
(893.547,345.929,c),
(906.151,345.784,o),
(917.015,345.878,o),
(917.687,346.136,c),
(919.9,346.985,o),
(917.873,349.484,o),
(913.668,351.09,c),
(911.397,351.957,o),
(908.25,353.695,o),
(906.674,354.952,c),
(903.809,357.238,l),
(904.136,377.833,l),
(904.463,398.427,l),
(911.46,408.932,l),
(915.309,414.71,o),
(921.748,424.49,o),
(925.77,430.666,c),
(934.296,443.758,o),
(938.354,448.526,o),
(942.394,450.199,c),
(944.187,450.942,o),
(945.312,452.125,o),
(945.312,453.265,c),
(945.312,455.032,o),
(944.438,455.108,o),
(927.083,454.855,c),
(914.392,454.671,o),
(908.738,454.248,o),
(908.478,453.464,c),
(908.271,452.844,o),
(910.548,451.218,o),
(913.536,449.85,c),
(919.624,447.062,o),
(920.733,445.353,o),
(919.16,441.183,c),
(917.833,437.667,o),
(899.117,405.281,o),
(898.438,405.324,c),
(897.785,405.366,o),
(878.302,439.323,o),
(877.067,442.571,c),
(875.89,445.668,o),
(877.905,447.879,o),
(884.131,450.319,c),
(886.359,451.193,o),
(888.325,452.622,o),
(888.499,453.493,c),
(888.783,454.919,o),
(886.552,455.078,o),
(866.34,455.078,c),
(850.322,455.078,o),
(843.664,454.752,o),
(843.164,453.943,c)
);
},
{
attr = {
fillColor = (0,255);
};
closed = 1;
nodes = (
(303.213,444.621,o),
(308.48,435.813,o),
(306.728,424.711,c),
(305.308,415.714,o),
(300.035,410.228,o),
(290.932,408.276,c),
(285.318,407.072,o),
(278.301,406.922,o),
(276.826,407.974,c),
(276.172,408.441,o),
(275.951,415.576,o),
(276.195,428.416,c),
(276.569,448.14,l),
(280.618,448.509,l),
(282.846,448.712,o),
(285.357,448.954,o),
(286.199,449.048,c),
(287.042,449.142,o),
(290.106,448.514,o),
(293.009,447.651,c)
);
},
{
attr = {
fillColor = (0,255);
};
closed = 1;
nodes = (
(595.485,429.507,o),
(592.773,425.09,o),
(592.773,421.924,c),
(592.773,419.532,o),
(592.295,419.488,o),
(586.914,421.387,c),
(581.539,423.283,o),
(571.854,423.258,o),
(566.206,421.334,c),
(557.336,418.312,o),
(549.76,408.958,o),
(548.329,399.265,c),
(547.331,392.501,o),
(549.908,384.662,o),
(554.709,379.861,c),
(558.561,376.01,l),
(555.552,373.796,l),
(553.897,372.578,o),
(551.434,369.693,o),
(550.077,367.385,c),
(546.905,361.985,o),
(547.481,357.439,o),
(551.918,352.861,c),
(555.079,349.601,l),
(550.119,344.967,l),
(547.392,342.418,o),
(544.405,338.845,o),
(543.483,337.027,c),
(541.42,332.96,o),
(541.369,325.326,o),
(543.38,321.437,c),
(551.437,305.859,o),
(584.226,305.803,o),
(601.873,321.337,c),
(612.781,330.938,o),
(614.918,347.266,o),
(606.294,355.11,c),
(601.136,359.802,o),
(597.871,360.639,o),
(582.031,361.328,c),
(565.828,362.033,o),
(561.306,363.26,o),
(560.024,367.295,c),
(559.553,368.781,o),
(560.022,370.025,o),
(561.664,371.64,c),
(563.774,373.715,o),
(564.369,373.822,o),
(568.848,372.937,c),
(578.934,370.943,o),
(589.615,373.86,o),
(596.147,380.393,c),
(601.476,385.72,o),
(603.469,390.77,o),
(603.494,399.005,c),
(603.511,404.472,o),
(603.005,406.925,o),
(601.078,410.724,c),
(599.737,413.365,o),
(598.639,415.637,o),
(598.637,415.771,c),
(598.635,415.906,o),
(600.83,416.016,o),
(603.516,416.016,c),
(609.784,416.016,o),
(612.305,418.269,o),
(612.305,423.872,c),
(612.305,431.26,o),
(605.359,434.864,o),
(598.401,431.089,c)
);
},
{
attr = {
fillColor = (0,255);
};
closed = 1;
nodes = (
(420.106,417.646,o),
(414.062,410.971,o),
(414.062,402.338,c),
(414.062,395.461,o),
(421.149,390.599,o),
(426.276,393.958,c),
(428.585,395.47,o),
(428.711,396.027,o),
(428.711,404.703,c),
(428.711,415.048,o),
(428.704,415.039,o),
(436.495,415.039,c),
(442.327,415.039,o),
(445.096,412.975,o),
(446.313,407.715,c),
(447.424,402.923,o),
(447.522,389.611,o),
(446.46,387.937,c),
(446.032,387.266,o),
(441.755,385.132,o),
(436.953,383.196,c),
(425.362,378.524,o),
(423.43,377.471,o),
(418.824,373.31,c),
(413.608,368.597,o),
(412.109,365.405,o),
(412.109,359.01,c),
(412.109,352.557,o),
(414.779,348.754,o),
(421.08,346.232,c),
(428.679,343.192,o),
(438.681,346.604,o),
(444.746,354.306,c),
(446.62,356.687,l),
(448.868,352.263,l),
(450.684,348.69,o),
(451.975,347.512,o),
(455.571,346.138,c),
(459.411,344.671,o),
(460.593,344.606,o),
(464.144,345.668,c),
(468.983,347.116,o),
(473.633,350.2,o),
(473.633,351.963,c),
(473.633,352.646,o),
(471.891,353.729,o),
(469.762,354.366,c),
(462.93,356.413,o),
(462.891,356.592,o),
(462.891,385.991,c),
(462.891,415.051,o),
(462.564,416.956,o),
(456.897,420.997,c),
(452.068,424.441,o),
(440.443,424.728,o),
(431.522,421.621,c)
);
},
{
attr = {
fillColor = (0,255);
};
closed = 1;
nodes = (
(582.996,414.309,o),
(584.679,412.35,o),
(586.527,408.571,c),
(588.83,403.864,o),
(589.067,402.438,o),
(588.673,395.634,c),
(588.005,384.094,o),
(584.004,378.906,o),
(575.77,378.906,c),
(568.687,378.906,o),
(563.313,386.853,o),
(563.247,397.427,c),
(563.197,405.378,o),
(564.63,410.023,o),
(568.138,413.291,c),
(572.503,417.357,o),
(575.495,417.868,o),
(580.641,415.427,c)
);
},
{
attr = {
fillColor = (0,255);
};
closed = 1;
nodes = (
(306.927,394.398,o),
(311.77,386.642,o),
(311.765,376.536,c),
(311.761,370.449,o),
(309.831,364.342,o),
(306.848,360.981,c),
(300.117,353.4,o),
(278.956,352.076,o),
(276.298,359.07,c),
(275.418,361.384,o),
(274.968,399.642,o),
(275.811,400.484,c),
(276.816,401.491,o),
(294.797,399.536,o),
(298.34,398.035,c)
);
},
{
attr = {
fillColor = (0,255);
};
closed = 1;
nodes = (
(446.893,368.198,o),
(446.923,363.645,o),
(446.642,362.572,c),
(445.924,359.824,o),
(439.217,356.333,o),
(434.533,356.269,c),
(428.865,356.19,o),
(426.758,358.437,o),
(426.758,364.561,c),
(426.758,368.956,o),
(427.13,369.793,o),
(430.491,372.954,c),
(433.449,375.736,o),
(441.956,380.188,o),
(445.411,380.762,c),
(445.734,380.815,o),
(446.259,377.184,o),
(446.575,372.69,c)
);
},
{
attr = {
fillColor = (0,255);
};
closed = 1;
nodes = (
(593.922,345.434,o),
(597.656,340.735,o),
(597.656,335.926,c),
(597.656,325.294,o),
(589.811,318.42,o),
(577.637,318.387,c),
(569.591,318.364,o),
(564.983,319.839,o),
(560.532,323.86,c),
(554.295,329.494,o),
(552.974,338.204,o),
(557.41,344.437,c),
(559.354,347.168,l),
(572.89,346.903,l),
(580.335,346.757,o),
(587.827,346.413,o),
(589.541,346.138,c)
);
},
{
attr = {
fillColor = (0,255);
};
closed = 1;
nodes = (
(569.447,225.986,o),
(567.371,217.236,o),
(571.692,212.213,c),
(573.623,209.969,o),
(574.842,209.473,o),
(578.426,209.473,c),
(585.444,209.473,o),
(589.669,215.217,o),
(587.738,222.133,c),
(586.21,227.607,o),
(580.478,230.642,o),
(575.574,228.572,c)
);
},
{
attr = {
fillColor = (0,255);
};
closed = 1;
nodes = (
(892.296,221.862,o),
(887.389,211.116,o),
(869.589,169.74,c),
(849.497,123.039,o),
(849.901,123.783,o),
(842.529,120.002,c),
(836.276,116.796,o),
(837.665,115.252,o),
(846.924,115.115,c),
(851.355,115.049,o),
(858.844,114.851,o),
(863.565,114.673,c),
(868.288,114.495,o),
(872.792,114.596,o),
(873.575,114.896,c),
(876.38,115.973,o),
(874.913,118.061,o),
(869.665,120.463,c),
(865.954,122.162,o),
(864.154,123.607,o),
(863.752,125.21,c),
(863.167,127.543,o),
(865.958,136.371,o),
(870.602,146.871,c),
(873.022,152.344,l),
(891.024,152.344,l),
(909.025,152.344,l),
(913.885,139.893,l),
(921.035,121.57,o),
(920.97,123.419,o),
(914.57,120.488,c),
(910.959,118.836,o),
(909.176,117.467,o),
(909.371,116.499,c),
(909.622,115.251,o),
(912.728,114.997,o),
(929.688,114.836,c),
(940.698,114.731,o),
(950.477,114.83,o),
(951.416,115.055,c),
(954.366,115.759,o),
(953.238,117.573,o),
(947.966,120.605,c),
(943.228,123.33,o),
(942.494,124.288,o),
(937.493,134.277,c),
(932.695,143.859,o),
(910.681,196.725,o),
(903.535,215.82,c),
(901.033,222.507,o),
(900.543,223.167,o),
(897.907,223.399,c),
(896.319,223.539,o),
(894.496,223.31,o),
(893.856,222.889,c)
);
},
{
attr = {
fillColor = (0,255);
};
closed = 1;
nodes = (
(55.664,219.697,o),
(57.041,218.426,o),
(59.485,217.323,c),
(61.587,216.376,o),
(64.773,214.088,o),
(66.565,212.239,c),
(69.824,208.878,l),
(70.084,169.624,l),
(70.387,123.845,o),
(70.687,125.508,o),
(61.262,120.605,c),
(57.701,118.753,o),
(55.73,117.137,o),
(55.904,116.211,c),
(56.138,114.969,o),
(59.065,114.746,o),
(75.195,114.746,c),
(91.899,114.746,o),
(94.248,114.937,o),
(94.515,116.318,c),
(94.721,117.392,o),
(93.066,118.747,o),
(89.301,120.59,c),
(85.283,122.556,o),
(83.434,124.128,o),
(82.494,126.376,c),
(81.523,128.698,o),
(81.125,138.581,o),
(80.885,166.246,c),
(80.71,186.478,o),
(80.846,202.722,o),
(81.188,202.345,c),
(81.529,201.968,o),
(91.658,187.817,o),
(103.696,170.898,c),
(146.137,111.253,o),
(145.313,112.297,o),
(149.841,112.319,c),
(156.071,112.351,o),
(155.715,109.584,o),
(156.25,162.011,c),
(156.738,209.836,l),
(159.495,212.712,l),
(161.012,214.294,o),
(163.978,216.366,o),
(166.087,217.317,c),
(168.542,218.425,o),
(169.922,219.696,o),
(169.922,220.852,c),
(169.922,222.545,o),
(168.749,222.656,o),
(150.879,222.656,c),
(132.843,222.656,o),
(131.836,222.559,o),
(131.836,220.807,c),
(131.836,219.581,o),
(133.383,218.182,o),
(136.424,216.656,c),
(145.245,212.232,o),
(144.978,213.47,o),
(145.324,175.524,c),
(145.628,142.204,l),
(133.692,159.236,l),
(127.127,168.604,o),
(114.346,186.706,o),
(105.287,199.463,c),
(88.818,222.656,l),
(72.241,222.656,l),
(56.77,222.656,o),
(55.664,222.536,o),
(55.664,220.852,c)
);
},
{
attr = {
fillColor = (0,255);
};
closed = 1;
nodes = (
(246.486,218.993,o),
(247.587,218.04,o),
(249.849,217.394,c),
(254.896,215.952,o),
(258.401,211.832,o),
(259.136,206.474,c),
(260.303,197.955,o),
(259.757,130.668,o),
(258.49,126.953,c),
(257.569,124.253,o),
(256.196,122.964,o),
(251.953,120.815,c),
(248.926,119.282,o),
(246.582,117.436,o),
(246.582,116.584,c),
(246.582,115.281,o),
(249.365,115.011,o),
(266.602,114.638,c),
(277.612,114.399,o),
(288.293,114.479,o),
(290.337,114.813,c),
(295.48,115.658,o),
(294.72,117.916,o),
(288.515,120.228,c),
(285.797,121.24,o),
(282.611,122.965,o),
(281.435,124.061,c),
(279.297,126.053,l),
(279.297,170.404,l),
(279.297,214.755,l),
(282.811,215.414,l),
(288.086,216.404,o),
(296.504,215.232,o),
(300.104,213.008,c),
(304.745,210.139,o),
(307.625,204.406,o),
(307.853,197.58,c),
(308.34,183.018,o),
(304.953,176.924,o),
(293.045,170.937,c),
(284.619,166.7,o),
(283.573,165.781,o),
(285.425,164.245,c),
(287.157,162.807,o),
(301.896,165.495,o),
(308.276,168.412,c),
(319.791,173.678,o),
(327.176,184.604,o),
(327.268,196.508,c),
(327.331,204.794,o),
(325.095,209.969,o),
(319.132,215.33,c),
(311.426,222.259,o),
(309.039,222.656,o),
(275.146,222.656,c),
(245.958,222.656,l),
(246.27,220.491,l)
);
},
{
attr = {
fillColor = (0,255);
};
closed = 1;
nodes = (
(675.781,219.581,o),
(676.947,218.197,o),
(678.66,217.312,c),
(685.796,213.622,o),
(687.155,211.075,o),
(715.965,147.461,c),
(732.935,109.99,o),
(731.407,112.793,o),
(734.856,112.793,c),
(737.654,112.793,o),
(737.922,113.293,o),
(750.238,141.602,c),
(780.838,211.928,o),
(779.555,209.182,o),
(783.758,213.348,c),
(785.942,215.513,o),
(788.764,217.976,o),
(790.026,218.82,c),
(794.748,221.977,o),
(791.724,222.656,o),
(772.949,222.656,c),
(761.533,222.656,o),
(754.769,222.285,o),
(754.368,221.637,c),
(753.432,220.122,o),
(755.613,217.982,o),
(758.811,217.28,c),
(763.384,216.276,o),
(766.602,213.161,o),
(766.602,209.738,c),
(766.602,206.323,o),
(740.09,139.354,o),
(739.161,140.421,c),
(737.157,142.722,o),
(711.255,204.224,o),
(710.319,208.903,c),
(709.548,212.759,o),
(711.539,215.143,o),
(717.404,217.383,c),
(720.341,218.504,o),
(721.68,219.585,o),
(721.68,220.836,c),
(721.68,222.561,o),
(720.471,222.656,o),
(698.73,222.656,c),
(676.532,222.656,o),
(675.781,222.593,o),
(675.781,220.729,c)
);
},
{
attr = {
fillColor = (0,255);
};
closed = 1;
nodes = (
(902.41,169.467,o),
(905.17,161.681,o),
(904.993,161.504,c),
(904.301,160.812,o),
(876.953,160.158,o),
(876.953,160.834,c),
(876.953,163.073,o),
(891.223,197.838,o),
(891.761,196.909,c),
(892.116,196.294,o),
(895.312,188.148,o),
(898.861,178.808,c)
);
},
{
attr = {
fillColor = (0,255);
};
closed = 1;
nodes = (
(426.839,189.979,o),
(423.351,187.845,o),
(418.809,183.302,c),
(410.5,174.99,o),
(406.241,163.669,o),
(406.262,149.941,c),
(406.275,140.273,o),
(408.064,133.256,o),
(412.131,126.92,c),
(418.624,116.801,o),
(425.919,113.003,o),
(438.965,112.951,c),
(450.027,112.906,o),
(457.245,115.482,o),
(464.145,121.936,c),
(484.323,140.811,o),
(482.307,178.964,o),
(460.537,190.188,c),
(456.389,192.327,o),
(454.031,192.8,o),
(446.289,193.044,c),
(440.455,193.228,o),
(435.562,192.858,o),
(433.105,192.047,c)
);
},
{
attr = {
fillColor = (0,255);
};
closed = 1;
nodes = (
(563.891,188.268,o),
(561.523,187.399,o),
(561.523,186.033,c),
(561.523,185.256,o),
(562.838,183.94,o),
(564.444,183.11,c),
(570.226,180.12,o),
(570.432,179.149,o),
(571.03,152.127,c),
(571.639,124.663,o),
(571.292,122.66,o),
(565.413,119.62,c),
(563.811,118.792,o),
(562.5,117.466,o),
(562.5,116.674,c),
(562.5,115.513,o),
(564.433,115.195,o),
(572.51,115.032,c),
(581.874,114.843,o),
(587.558,114.867,o),
(593.994,115.126,c),
(597.605,115.272,o),
(597.444,117.61,o),
(593.717,119.154,c),
(592.087,119.829,o),
(589.89,121.48,o),
(588.834,122.822,c),
(587.009,125.144,o),
(586.914,126.938,o),
(586.914,159.312,c),
(586.914,193.359,l),
(584.717,193.271,l),
(583.509,193.222,o),
(580.103,192.544,o),
(577.148,191.765,c)
);
},
{
attr = {
fillColor = (0,255);
};
closed = 1;
nodes = (
(456.35,180.453,o),
(460.112,170.957,o),
(460.721,155.402,c),
(461.233,142.308,o),
(459.876,134.601,o),
(455.971,128.443,c),
(448.655,116.908,o),
(433.59,118.294,o),
(427.336,131.077,c),
(423.79,138.324,o),
(422.296,150.617,o),
(423.696,161.023,c),
(426.392,181.049,o),
(436.778,190.308,o),
(449.412,183.946,c)
);
}
);
width = 1000;
}
);
unicode = 72;
},
{
glyphname = I;
lastChange = "2023-01-30 17:06:50 +0000";
layers = (
{
layerId = m01;
shapes = (
{
attr = {
fillColor = (0,255);
};
closed = 1;
nodes = (
(10,614,o),
(23,601,o),
(41,597,c),
(50,595,o),
(65,584,o),
(74,574,c),
(92,555,l),
(92,314,l),
(92,119,o),
(90,72,o),
(84,59,c),
(78,50,o),
(64,38,o),
(47,31,c),
(28,21,o),
(19,14,o),
(20,8,c),
(21,0,o),
(39,-1,o),
(154,-1,c),
(269,-1,o),
(286,0,o),
(287,8,c),
(290,14,o),
(280,21,o),
(258,30,c),
(200,54,o),
(203,36,o),
(206,315,c),
(208,594,o),
(203,573,o),
(259,598,c),
(277,605,o),
(290,615,o),
(290,620,c),
(290,627,o),
(271,628,o),
(154,628,c),
(67,628,o),
(18,626,o),
(15,622,c)
);
}
);
width = 300;
}
);
unicode = 73;
},
{
glyphname = N;
lastChange = "2023-01-30 17:06:50 +0000";
layers = (
{
layerId = m01;
shapes = (
{
attr = {
fillColor = (0,255);
};
closed = 1;
nodes = (
(12,606,o),
(21,598,o),
(35,592,c),
(47,587,o),
(65,573,o),
(75,562,c),
(94,544,l),
(96,317,l),
(98,52,o),
(100,62,o),
(45,33,c),
(24,23,o),
(14,13,o),
(15,8,c),
(16,1,o),
(32,0,o),
(126,0,c),
(222,0,o),
(235,1,o),
(237,9,c),
(238,15,o),
(229,23,o),
(207,33,c),
(184,45,o),
(173,54,o),
(168,67,c),
(162,81,o),
(159,137,o),
(158,297,c),
(157,413,o),
(158,508,o),
(161,506,c),
(162,504,o),
(220,422,o),
(290,324,c),
(535,-20,o),
(530,-15,o),
(556,-14,c),
(592,-14,o),
(591,-30,o),
(593,273,c),
(596,549,l),
(612,566,l),
(621,574,o),
(638,587,o),
(651,592,c),
(665,598,o),
(673,606,o),
(673,613,c),
(673,622,o),
(666,622,o),
(563,622,c),
(459,622,o),
(452,622,o),
(452,612,c),
(452,606,o),
(462,597,o),
(479,588,c),
(530,562,o),
(528,570,o),
(530,350,c),
(532,158,l),
(463,257,l),
(425,310,o),
(352,415,o),
(299,489,c),
(205,622,l),
(108,622,l),
(19,622,o),
(12,622,o),
(12,613,c)
);
}
);
width = 679;
}
);
unicode = 78;
},
{
glyphname = O;
lastChange = "2023-01-30 17:06:50 +0000";
layers = (
{
layerId = m01;
shapes = (
{
attr = {
fillColor = (0,255);
};
closed = 1;
nodes = (
(189,620,o),
(103,550,o),
(61,462,c),
(34,404,o),
(26,371,o),
(26,303,c),
(26,179,o),
(80,83,o),
(179,32,c),
(363,-66,o),
(595,34,o),
(662,239,c),
(681,301,o),
(682,390,o),
(664,446,c),
(649,492,o),
(615,544,o),
(580,576,c),
(547,604,o),
(484,634,o),
(441,643,c),
(396,650,o),
(325,649,o),
(282,640,c)
);
},
{
attr = {
fillColor = (0,255);
};
closed = 1;
nodes = (
(514,545,o),
(562,448,o),
(562,325,c),
(562,228,o),
(539,161,o),
(488,105,c),
(448,62,o),
(416,49,o),
(351,47,c),
(307,47,o),
(295,50,o),
(268,63,c),
(229,82,o),
(188,125,o),
(169,166,c),
(125,263,o),
(130,412,o),
(180,496,c),
(209,544,o),
(263,586,o),
(311,599,c),
(343,607,o),
(401,601,o),
(434,584,c)
);
}
);
width = 702;
}
);
unicode = 79;
},
{
glyphname = P;
lastChange = "2023-01-30 17:06:50 +0000";
layers = (
{
layerId = m01;
shapes = (
{
attr = {
fillColor = (0,255);
};
closed = 1;
nodes = (
(18,601,o),
(24,596,o),
(37,593,c),
(66,585,o),
(86,560,o),
(90,529,c),
(98,481,o),
(95,92,o),
(87,70,c),
(82,54,o),
(74,47,o),
(49,34,c),
(32,26,o),
(18,15,o),
(18,10,c),
(18,3,o),
(35,1,o),
(133,-1,c),
(198,-2,o),
(259,-2,o),
(271,0,c),
(300,5,o),
(296,18,o),
(261,31,c),
(245,37,o),
(226,47,o),
(220,53,c),
(207,65,l),
(207,321,l),
(207,577,l),
(228,581,l),
(258,587,o),
(307,580,o),
(328,567,c),
(354,551,o),
(371,517,o),
(372,478,c),
(375,393,o),
(355,359,o),
(287,324,c),
(237,300,o),
(232,295,o),
(243,285,c),
(252,277,o),
(338,293,o),
(375,309,c),
(441,340,o),
(484,403,o),
(484,472,c),
(484,519,o),
(472,550,o),
(437,580,c),
(393,620,o),
(379,622,o),
(183,622,c),
(15,622,l),
(17,611,l)
);
}
);
width = 485;
}
);
unicode = 80;
},
{
glyphname = S;
lastChange = "2023-01-30 17:06:50 +0000";
layers = (
{
layerId = m01;
shapes = (
{
attr = {
fillColor = (0,255);
};
closed = 1;
nodes = (
(105,614,o),
(54,555,o),
(53,464,c),
(53,425,o),
(55,413,o),
(69,386,c),
(89,345,o),
(114,325,o),
(196,283,c),
(271,244,o),
(299,217,o),
(309,174,c),
(323,117,o),
(303,68,o),
(259,45,c),
(187,8,o),
(114,54,o),
(84,155,c),
(76,180,o),
(67,188,o),
(53,177,c),
(46,171,o),
(45,162,o),
(50,97,c),
(54,52,o),
(58,23,o),
(63,20,c),
(104,-7,o),
(233,-13,o),
(288,9,c),
(415,59,o),
(444,246,o),
(336,324,c),
(322,334,o),
(285,355,o),
(253,369,c),
(161,412,o),
(131,455,o),
(146,520,c),
(155,565,o),
(188,591,o),
(233,591,c),
(291,591,o),
(322,562,o),
(352,484,c),
(361,461,o),
(368,452,o),
(377,450,c),
(388,449,o),
(388,451,o),
(388,493,c),
(387,517,o),
(385,556,o),
(384,579,c),
(380,621,l),
(335,629,l),
(282,636,o),
(239,636,o),
(197,630,c)
);
}
);
width = 449;
}
);
unicode = 83;
},
{
glyphname = V;
lastChange = "2023-01-30 17:06:50 +0000";
layers = (
{
layerId = m01;
shapes = (
{
attr = {
fillColor = (0,255);
};
closed = 1;
nodes = (
(-32,606,o),
(-26,597,o),
(-15,592,c),
(26,571,o),
(33,556,o),
(200,189,c),
(298,-28,o),
(289,-12,o),
(309,-12,c),
(325,-12,o),
(327,-9,o),
(397,155,c),
(575,560,o),
(568,545,o),
(592,569,c),
(604,581,o),
(620,596,o),
(627,600,c),
(655,619,o),
(638,622,o),
(529,622,c),
(464,622,o),
(424,620,o),
(422,617,c),
(416,609,o),
(429,596,o),
(448,592,c),
(474,586,o),
(492,568,o),
(492,548,c),
(492,529,o),
(340,141,o),
(333,148,c),
(322,161,o),
(173,516,o),
(168,544,c),
(163,566,o),
(175,579,o),
(208,592,c),
(225,599,o),
(233,606,o),
(233,612,c),
(233,622,o),
(226,622,o),
(100,622,c),
(-28,622,o),
(-32,622,o),
(-32,612,c)
);
}
);
width = 607;
}
);
unicode = 86;
},
{
glyphname = Y;
lastChange = "2023-01-30 17:06:50 +0000";
layers = (
{
layerId = m01;
shapes = (
{
attr = {
fillColor = (0,255);
};
closed = 1;
nodes = (
(-36,616,o),
(-32,610,o),
(2,587,c),
(20,575,o),
(33,554,o),
(127,405,c),
(202,282,l),
(202,174,l),
(202,69,o),
(202,65,o),
(190,52,c),
(182,44,o),
(164,33,o),
(150,28,c),
(131,20,o),
(123,14,o),
(125,8,c),
(126,0,o),
(142,-1,o),
(259,-3,c),
(331,-3,o),
(394,-3,o),
(398,-1,c),
(411,4,o),
(399,18,o),
(374,28,c),
(362,33,o),
(343,42,o),
(335,50,c),
(318,63,l),
(320,182,l),
(322,301,l),
(362,362,l),
(384,395,o),
(422,452,o),
(445,488,c),
(494,563,o),
(517,590,o),
(540,600,c),
(551,604,o),
(557,611,o),
(557,618,c),
(557,628,o),
(552,628,o),
(452,627,c),
(379,626,o),
(346,623,o),
(345,619,c),
(344,615,o),
(357,606,o),
(374,598,c),
(409,582,o),
(415,572,o),
(406,547,c),
(399,527,o),
(290,341,o),
(286,341,c),
(283,341,o),
(171,537,o),
(163,556,c),
(156,574,o),
(169,586,o),
(204,601,c),
(217,605,o),
(228,614,o),
(230,619,c),
(231,627,o),
(218,628,o),
(101,628,c),
(9,628,o),
(-30,626,o),
(-33,622,c)
);
}
);
width = 523;
}
);
unicode = 89;
},
{
glyphname = a;
lastChange = "2023-01-30 17:06:50 +0000";
layers = (
{
layerId = m01;
shapes = (
{
attr = {
fillColor = (0,255);
};
closed = 1;
nodes = (
(92,412,o),
(56,373,o),
(56,324,c),
(56,284,o),
(97,256,o),
(127,275,c),
(140,284,o),
(141,287,o),
(141,337,c),
(141,397,o),
(141,397,o),
(186,397,c),
(220,397,o),
(236,385,o),
(243,354,c),
(249,327,o),
(249,250,o),
(244,241,c),
(241,237,o),
(217,224,o),
(188,212,c),
(122,186,o),
(111,180,o),
(84,156,c),
(54,128,o),
(46,111,o),
(46,73,c),
(46,36,o),
(60,14,o),
(97,-1,c),
(141,-19,o),
(199,1,o),
(233,47,c),
(244,60,l),
(258,34,l),
(268,14,o),
(275,7,o),
(296,-1,c),
(319,-9,o),
(325,-10,o),
(346,-4,c),
(373,5,o),
(400,22,o),
(400,33,c),
(400,36,o),
(390,42,o),
(378,47,c),
(338,58,o),
(338,59,o),
(338,229,c),
(338,397,o),
(336,408,o),
(304,431,c),
(275,451,o),
(209,453,o),
(157,435,c)
);
},
{
attr = {
fillColor = (0,255);
};
closed = 1;
nodes = (
(246,126,o),
(246,100,o),
(245,94,c),
(241,78,o),
(202,58,o),
(175,57,c),
(142,57,o),
(130,70,o),
(130,105,c),
(130,131,o),
(132,136,o),
(152,154,c),
(168,169,o),
(218,196,o),
(238,199,c),
(240,199,o),
(242,178,o),
(244,153,c)
);
}
);
width = 424;
}
);
unicode = 97;
},
{
glyphname = b;
lastChange = "2023-01-30 17:06:50 +0000";
layers = (
{
layerId = m01;
shapes = (
{
attr = {
fillColor = (0,255);
};
closed = 1;
nodes = (
(39,716,o),
(30,713,o),
(28,704,c),
(27,698,o),
(33,692,o),
(43,688,c),
(82,672,o),
(80,692,o),
(83,348,c),
(87,37,l),
(118,20,l),
(151,4,o),
(189,-4,o),
(227,-4,cs),
(264,-4,o),
(302,4,o),
(334,19,c),
(417,60,o),
(472,166,o),
(466,271,c),
(457,385,o),
(392,455,o),
(312,455,cs),
(281,455,o),
(247,444,o),
(214,422,c),
(196,411,o),
(180,400,o),
(179,400,c),
(178,400,o),
(177,477,o),
(177,571,c),
(177,605,o),
(177,633,o),
(177,655,cs),
(177,725,o),
(175,743,o),
(156,743,cs),
(145,743,o),
(131,738,o),
(109,733,c)
);
},
{
attr = {
fillColor = (0,255);
};
closed = 1;
nodes = (
(333,372,o),
(361,332,o),
(371,266,c),
(374,250,o),
(375,234,o),
(375,218,cs),
(375,163,o),
(360,110,o),
(334,79,c),
(314,56,o),
(286,43,o),
(255,43,cs),
(238,43,o),
(220,48,o),
(203,56,c),
(179,67,l),
(179,223,l),
(179,308,o),
(180,378,o),
(181,378,c),
(181,378,o),
(193,381,o),
(204,387,c),
(219,392,o),
(234,394,o),
(249,394,cs),
(262,394,o),
(275,392,o),
(287,388,c)
);
}
);
width = 473;
}
);
unicode = 98;
},
{
glyphname = e;
lastChange = "2023-01-30 17:06:50 +0000";
layers = (
{
layerId = m01;
shapes = (
{
attr = {
fillColor = (0,255);
};
closed = 1;
nodes = (
(128,429,o),
(65,352,o),
(49,256,c),
(41,209,o),
(45,148,o),
(58,110,c),
(70,75,o),
(111,30,o),
(147,11,c),
(172,-1,o),
(184,-4,o),
(230,-5,c),
(278,-5,o),
(287,-2,o),
(316,12,c),
(341,24,o),
(354,34,o),
(365,54,c),
(392,94,o),
(389,96,o),
(332,74,c),
(301,62,o),
(290,59,o),
(261,63,c),
(184,71,o),
(134,130,o),
(134,214,c),
(134,241,l),
(268,242,l),
(402,243,l),
(400,283,l),
(395,402,o),
(316,466,o),
(203,444,c)
);
},
{
attr = {
fillColor = (0,255);
};
closed = 1;
nodes = (
(277,388,o),
(287,377,o),
(291,369,c),
(299,351,o),
(310,293,o),
(306,285,c),
(301,279,o),
(134,279,o),
(134,285,c),
(134,288,o),
(139,306,o),
(145,326,c),
(167,397,o),
(223,427,o),
(269,393,c)
);
}
);
width = 444;
}
);
unicode = 101;
},
{
glyphname = g;
lastChange = "2023-01-30 17:06:50 +0000";
layers = (
{
layerId = m01;
shapes = (
{
attr = {
fillColor = (0,255);
};
closed = 1;
nodes = (
(336,480,o),
(320,455,o),
(320,436,c),
(320,422,o),
(318,422,o),
(287,433,c),
(256,445,o),
(199,445,o),
(167,433,c),
(115,416,o),
(72,362,o),
(64,306,c),
(58,267,o),
(73,221,o),
(101,194,c),
(123,172,l),
(106,159,l),
(97,152,o),
(82,135,o),
(74,121,c),
(56,91,o),
(59,64,o),
(85,38,c),
(103,19,l),
(74,-8,l),
(59,-23,o),
(41,-43,o),
(36,-53,c),
(24,-77,o),
(24,-121,o),
(36,-143,c),
(82,-234,o),
(271,-234,o),
(373,-145,c),
(436,-89,o),
(448,6,o),
(399,51,c),
(368,78,o),
(350,82,o),
(258,86,c),
(165,91,o),
(139,98,o),
(131,121,c),
(129,130,o),
(131,137,o),
(141,146,c),
(153,158,o),
(156,159,o),
(183,154,c),
(240,142,o),
(302,159,o),
(340,197,c),
(371,227,o),
(382,257,o),
(382,304,c),
(382,335,o),
(380,350,o),
(368,372,c),
(361,387,o),
(355,400,o),
(355,401,c),
(355,401,o),
(367,403,o),
(382,403,c),
(419,403,o),
(434,415,o),
(434,448,c),
(434,491,o),
(394,512,o),
(353,490,c)
);
},
{
attr = {
fillColor = (0,255);
};
closed = 1;
nodes = (
(265,393,o),
(274,382,o),
(284,359,c),
(298,332,o),
(299,324,o),
(297,285,c),
(293,218,o),
(270,188,o),
(223,188,c),
(182,188,o),
(150,235,o),
(150,295,c),
(150,341,o),
(158,368,o),
(178,387,c),
(204,410,o),
(220,413,o),
(251,399,c)
);
},
{
attr = {
fillColor = (0,255);
};
closed = 1;
nodes = (
(328,-5,o),
(349,-32,o),
(349,-61,c),
(349,-121,o),
(303,-161,o),
(233,-161,c),
(187,-161,o),
(160,-153,o),
(134,-130,c),
(99,-97,o),
(90,-47,o),
(116,-11,c),
(128,5,l),
(206,4,l),
(249,2,o),
(292,0,o),
(302,-1,c)
);
}
);
width = 463;
}
);
unicode = 103;
},
{
glyphname = h;
lastChange = "2023-01-30 17:06:50 +0000";
layers = (
{
layerId = m01;
shapes = (
{
attr = {
fillColor = (0,255);
};
closed = 1;
nodes = (
(16,719,o),
(7,712,o),
(45,695,c),
(91,675,o),
(88,699,o),
(89,365,c),
(91,35,o),
(92,42,o),
(57,24,c),
(22,6,o),
(39,2,o),
(141,0,c),
(230,-1,o),
(237,-1,o),
(237,8,c),
(237,14,o),
(229,23,o),
(216,29,c),
(201,37,o),
(193,46,o),
(189,61,c),
(186,72,o),
(184,136,o),
(186,225,c),
(188,370,l),
(206,380,l),
(233,394,o),
(298,397,o),
(321,383,c),
(359,363,o),
(361,351,o),
(361,194,c),
(361,53,l),
(344,37,l),
(334,28,o),
(322,21,o),
(318,21,c),
(314,21,o),
(311,15,o),
(311,9,c),
(311,-1,o),
(314,-1,o),
(410,0,c),
(515,2,o),
(531,6,o),
(498,24,c),
(488,28,o),
(474,37,o),
(468,45,c),
(458,56,o),
(458,64,o),
(457,204,c),
(457,289,o),
(455,360,o),
(451,372,c),
(444,399,o),
(416,432,o),
(392,442,c),
(367,452,o),
(302,452,o),
(270,442,c),
(255,437,o),
(230,425,o),
(215,413,c),
(199,402,o),
(186,393,o),
(185,393,c),
(185,393,o),
(184,474,o),
(184,572,c),
(184,751,l),
(170,752,l),
(162,754,o),
(129,747,o),
(96,739,c)
);
}
);
width = 506;
}
);
unicode = 104;
},
{
glyphname = i;
lastChange = "2023-01-30 17:06:50 +0000";
layers = (
{
layerId = m01;
shapes = (
{
attr = {
fillColor = (0,255);
};
closed = 1;
nodes = (
(76,642,o),
(64,592,o),
(88,562,c),
(100,550,o),
(107,547,o),
(127,547,c),
(168,547,o),
(192,580,o),
(182,620,c),
(172,652,o),
(140,669,o),
(111,657,c)
);
},
{
attr = {
fillColor = (0,255);
};
closed = 1;
nodes = (
(43,424,o),
(30,420,o),
(30,411,c),
(30,407,o),
(38,400,o),
(47,394,c),
(80,378,o),
(81,371,o),
(85,216,c),
(88,57,o),
(86,45,o),
(53,28,c),
(43,23,o),
(36,15,o),
(36,11,c),
(36,4,o),
(46,2,o),
(94,2,c),
(147,0,o),
(181,1,o),
(218,2,c),
(239,3,o),
(237,16,o),
(216,25,c),
(207,29,o),
(193,39,o),
(188,46,c),
(178,60,o),
(177,70,o),
(177,257,c),
(177,453,l),
(164,453,l),
(157,453,o),
(138,449,o),
(120,445,c)
);
}
);
width = 255;
}
);
unicode = 105;
},
{
glyphname = n;
lastChange = "2023-01-30 17:06:50 +0000";
layers = (
{
layerId = m01;
shapes = (
{
attr = {
fillColor = (0,255);
};
closed = 1;
nodes = (
(31,427,o),
(22,418,o),
(52,403,c),
(60,399,o),
(73,389,o),
(80,380,c),
(90,366,o),
(91,358,o),
(91,208,c),
(91,60,o),
(90,52,o),
(80,38,c),
(74,30,o),
(63,21,o),
(57,20,c),
(52,18,o),
(46,13,o),
(46,8,c),
(46,1,o),
(62,0,o),
(142,0,c),
(246,0,o),
(257,3,o),
(217,25,c),
(183,44,o),
(182,53,o),
(185,223,c),
(189,374,l),
(209,382,l),
(241,396,o),
(306,395,o),
(327,380,c),
(358,357,o),
(359,349,o),
(359,192,c),
(359,50,l),
(335,29,l),
(322,17,o),
(311,7,o),
(311,4,c),
(311,1,o),
(356,0,o),
(410,0,c),
(517,0,o),
(528,3,o),
(487,25,c),
(454,43,o),
(453,49,o),
(453,211,c),
(453,301,o),
(450,367,o),
(446,380,c),
(434,424,o),
(387,457,o),
(333,457,c),
(299,457,o),
(246,437,o),
(213,413,c),
(184,391,l),
(186,423,l),
(188,457,l),
(169,456,l),
(159,456,o),
(124,450,o),
(93,441,c)
);
}
);
width = 532;
}
);
unicode = 110;
},
{
glyphname = o;
lastChange = "2023-01-30 17:06:50 +0000";
layers = (
{
layerId = m01;
shapes = (
{
attr = {
fillColor = (0,255);
};
closed = 1;
nodes = (
(164,434,o),
(144,422,o),
(117,396,c),
(69,347,o),
(44,282,o),
(45,203,c),
(45,147,o),
(54,107,o),
(79,70,c),
(116,11,o),
(158,-11,o),
(233,-11,c),
(297,-11,o),
(339,4,o),
(379,42,c),
(495,150,o),
(484,370,o),
(358,435,c),
(334,448,o),
(320,450,o),
(276,452,c),
(242,453,o),
(214,451,o),
(199,446,c)
);
},
{
attr = {
fillColor = (0,255);
};
closed = 1;
nodes = (
(334,379,o),
(356,324,o),
(359,235,c),
(362,159,o),
(354,114,o),
(332,78,c),
(290,12,o),
(202,20,o),
(166,94,c),
(146,136,o),
(137,207,o),
(145,266,c),
(160,383,o),
(220,436,o),
(294,400,c)
);
}
);
width = 503;
}
);
unicode = 111;
},
{
glyphname = p;
lastChange = "2023-01-30 17:06:50 +0000";
layers = (
{
layerId = m01;
shapes = (
{
attr = {
fillColor = (0,255);
};
closed = 1;
nodes = (
(27,422,o),
(19,415,o),
(53,397,c),
(87,380,o),
(87,380,o),
(87,101,c),
(87,-154,l),
(65,-175,l),
(52,-188,o),
(42,-198,o),
(42,-200,c),
(42,-201,o),
(88,-203,o),
(143,-203,c),
(224,-203,o),
(244,-201,o),
(244,-195,c),
(244,-191,o),
(235,-184,o),
(222,-177,c),
(185,-161,o),
(182,-154,o),
(182,-69,c),
(182,-26,o),
(184,5,o),
(188,5,c),
(191,5,o),
(206,2,o),
(222,-1,c),
(243,-5,o),
(261,-5,o),
(285,-1,c),
(360,13,o),
(408,51,o),
(444,123,c),
(468,172,l),
(468,251,l),
(468,331,l),
(448,370,l),
(415,433,o),
(366,461,o),
(303,455,c),
(267,452,o),
(231,436,o),
(204,413,c),
(193,402,o),
(182,395,o),
(180,395,c),
(178,395,o),
(177,408,o),
(178,424,c),
(180,453,o),
(179,454,o),
(166,455,c),
(158,456,o),
(130,451,o),
(104,443,c)
);
},
{
attr = {
fillColor = (0,255);
};
closed = 1;
nodes = (
(355,358,o),
(380,298,o),
(380,212,c),
(380,131,o),
(353,72,o),
(308,53,c),
(284,42,o),
(241,43,o),
(209,54,c),
(182,63,l),
(184,222,l),
(185,380,l),
(209,387,l),
(244,398,o),
(279,396,o),
(307,382,c)
);
}
);
width = 486;
}
);
unicode = 112;
},
{
glyphname = s;
lastChange = "2023-01-30 17:06:50 +0000";
layers = (
{
layerId = m01;
shapes = (
{
attr = {
fillColor = (0,255);
};
closed = 1;
nodes = (
(101,424,o),
(65,378,o),
(65,313,c),
(65,251,o),
(89,222,o),
(175,188,c),
(232,163,o),
(262,138,o),
(267,109,c),
(277,52,o),
(206,12,o),
(146,43,c),
(124,54,o),
(105,79,o),
(86,121,c),
(80,137,o),
(73,145,o),
(67,143,c),
(59,142,o),
(58,133,o),
(60,80,c),
(61,46,o),
(64,16,o),
(66,13,c),
(75,4,o),
(137,-7,o),
(177,-7,c),
(276,-8,o),
(339,43,o),
(347,129,c),
(353,195,o),
(328,226,o),
(230,269,c),
(150,304,o),
(143,311,o),
(143,348,c),
(143,371,o),
(145,379,o),
(159,391,c),
(171,405,o),
(179,407,o),
(205,407,c),
(232,407,o),
(238,405,o),
(255,388,c),
(266,378,o),
(281,353,o),
(288,336,c),
(297,313,o),
(304,303,o),
(311,303,c),
(319,303,o),
(320,308,o),
(319,369,c),
(317,435,l),
(281,442,l),
(233,451,o),
(201,451,o),
(163,441,c)
);
}
);
width = 398;
}
);
unicode = 115;
},
{
glyphname = v;
lastChange = "2023-01-30 17:06:50 +0000";
layers = (
{
layerId = m01;
shapes = (
{
attr = {
fillColor = (0,255);
};
closed = 1;
nodes = (
(-23,419,o),
(-16,405,o),
(-9,405,c),
(5,405,o),
(29,371,o),
(55,315,c),
(71,282,o),
(109,196,o),
(141,124,c),
(192,9,o),
(200,-8,o),
(212,-8,c),
(219,-8,o),
(226,-5,o),
(230,0,c),
(235,6,o),
(270,87,o),
(350,286,c),
(380,359,o),
(390,378,o),
(410,397,c),
(424,410,o),
(434,422,o),
(434,424,c),
(434,426,o),
(397,427,o),
(350,427,c),
(278,427,o),
(265,426,o),
(265,419,c),
(265,413,o),
(273,407,o),
(281,404,c),
(303,395,o),
(316,382,o),
(316,368,c),
(316,355,o),
(241,134,o),
(237,134,c),
(232,134,o),
(141,364,o),
(141,377,c),
(141,383,o),
(150,392,o),
(163,402,c),
(176,409,o),
(187,419,o),
(187,422,c),
(187,427,o),
(-12,429,o),
(-18,424,c)
);
}
);
width = 416;
}
);
unicode = 118;
},
{
glyphname = y;
lastChange = "2023-01-30 17:06:50 +0000";
layers = (
{
layerId = m01;
shapes = (
{
attr = {
fillColor = (0,255);
};
closed = 1;
nodes = (
(-19,430,o),
(-13,420,o),
(0,410,c),
(11,400,o),
(28,379,o),
(36,361,c),
(72,291,o),
(185,19,o),
(185,7,c),
(185,-2,o),
(176,-31,o),
(164,-59,c),
(142,-108,l),
(130,-95,l),
(97,-66,o),
(48,-94,o),
(48,-144,c),
(48,-178,o),
(67,-197,o),
(101,-197,c),
(145,-197,o),
(162,-176,o),
(211,-51,c),
(224,-16,o),
(268,97,o),
(308,199,c),
(379,375,o),
(383,385,o),
(407,406,c),
(422,418,o),
(431,431,o),
(429,434,c),
(427,438,o),
(394,440,o),
(344,440,c),
(252,440,o),
(243,435,o),
(288,409,c),
(302,401,o),
(313,390,o),
(313,386,c),
(313,380,o),
(297,324,o),
(276,260,c),
(256,196,o),
(238,140,o),
(236,136,c),
(234,128,o),
(150,336,o),
(136,381,c),
(133,392,o),
(137,396,o),
(158,409,c),
(173,417,o),
(183,428,o),
(182,431,c),
(179,440,o),
(-11,442,o),
(-17,434,c)
);
}
);
width = 402;
}
);
unicode = 121;
},
